<?xml version="1.0" encoding="UTF-8" ?>
<!DOCTYPE svg PUBLIC "-//W3C//DTD SVG 1.1//EN" "http://www.w3.org/Graphics/SVG/1.1/DTD/svg11.dtd">
<svg width="255pt" height="33pt" viewBox="0 0 255 33" version="1.1" xmlns="http://www.w3.org/2000/svg">
<g id="#ff4649ff">
<path fill="#ff4649" opacity="1.00" d=" M 225.79 2.85 C 233.43 1.52 241.15 -0.21 248.95 0.30 C 251.30 0.34 253.45 1.39 255.00 3.14 L 255.00 5.19 C 253.95 8.74 250.92 11.07 247.89 12.90 C 242.83 15.91 237.28 17.97 231.72 19.82 C 216.79 24.56 201.31 27.29 185.82 29.38 C 152.81 33.62 119.38 33.59 86.23 31.18 C 69.86 29.90 53.49 28.00 37.47 24.32 C 27.99 22.17 18.53 19.51 9.79 15.18 C 5.99 13.20 1.92 10.96 0.00 6.91 L 0.00 5.41 C 0.77 3.99 1.85 2.68 3.52 2.35 C 8.44 1.18 13.54 2.13 18.47 2.79 C 30.36 4.82 42.08 7.68 53.90 10.03 C 76.92 14.95 100.47 17.71 124.03 17.02 C 158.48 17.47 192.21 9.53 225.79 2.85 Z" />
</g>
</svg>
